<svg version="1.1" xmlns="http://www.w3.org/2000/svg" viewBox="0 0 99 68" width="198" height="136">
    <style type="text/css">
        .st0 { fill-rule: evenodd; clip-rule: evenodd; fill: #286E28; }
        /* Added fill: currentColor so the text matches your website's text color */
        .st1 { fill-rule: evenodd; clip-rule: evenodd; fill: currentColor; } 
    </style>
    <g>
        <polygon class="st0" points="27.2,58.9 12.4,58.9 12.4,9 27.2,9 27.2,0 0.9,0 0.9,68 27.2,68"/>
        <polygon class="st0" points="72.6,0 72.6,9 87.4,9 87.4,58.9 72.6,58.9 72.6,68 98.9,68 98.9,0"/>
        
        <g class="st1">
            <g>
                <path d="M19.9,23.7V25c0.4,0,0.8,0,1.2,0c0.9,0,0.9-1.3,0-1.3H19.9L19.9,23.7z M21.1,22.2c3.2,0,3.2,4.3,0,4.3h-2.9v-6.7h4.8v1.5h-3.1v0.8H21.1z"/>
                <path d="M28.7,21.4c-1,0-1.5,0-2.5,0v0.9h2.2c0,0.5,0,1,0,1.5h-2.2c0,0.4,0,0.8,0,1.2c1,0,1.5,0,2.5,0c0,0.5,0,1,0,1.5c-1.5,0-2.7,0-4.2,0c0-2.2,0-4.5,0-6.7c1.5,0,2.6,0,4.1,0C28.7,20.4,28.7,20.9,28.7,21.4z"/>
                <path d="M29.9,21.4c-0.1-1.2,0.9-1.8,2.1-1.8c1.4,0,2.2,1,2.2,1.9c0,0.4-0.2,0.9-0.6,1.2c0.7,0.4,1,0.9,1,1.6c0,1.2-0.9,2.1-2.6,2.1c-1.4,0-2.3-0.8-2.3-2.3h1.5c0,0.5,0.3,0.9,0.8,0.9c1.1,0,1.1-1.5,0-1.5h-0.5v-1.4h0.4c0.8,0,0.8-1.2,0-1.2c-0.4,0-0.6,0.1-0.6,0.4L29.9,21.4L29.9,21.4z"/>
                <path d="M40.3,23.1c0-2.4-3.3-2.4-3.3,0C37,25.5,40.3,25.5,40.3,23.1L40.3,23.1z M35.2,23.1c0-4.6,6.8-4.6,6.8,0C42,27.7,35.2,27.7,35.2,23.1z"/>
                <path d="M48.7,26.5c-0.6,0-1.2,0-1.7,0v-5.1h-2v5.1c-0.6,0-1.2,0-1.7,0v-6.7c0.6,0,1.2,0,5.5,0L48.7,26.5L48.7,26.5z"/>
                <polygon points="51.1,26.5 49.4,26.5 49.4,26.3 52.4,19.8 53.1,19.8 56.1,26.3 56.1,26.5 54.4,26.5 52.7,22.6"/>
                <path d="M59.8,22.5L59,24.2h1.5L59.8,22.5L59.8,22.5z M61.1,25.7h-2.6l-0.4,0.8h-1.7v-0.2l3-6.5h0.7l3,6.5v0.2h-1.7L61.1,25.7z"/>
                <path d="M62.7,21.4c0-0.5,0-1,0-1.5h4.9c0,0.5,0,1,0,1.5H66v5.1c-0.6,0-1.1,0-1.7,0v-5.1H62.7z"/>
                <path d="M74,26.5c-0.6,0-1.2,0-1.7,0v-2.7h-2v2.7c-0.6,0-1.2,0-1.7,0v-6.7c0.6,0,1.2,0,1.7,0v2.4h2v-2.4c0.6,0,1.2,0,1.7,0L74,26.5L74,26.5z"/>
                <path d="M78.1,22.5l-0.7,1.8h1.5L78.1,22.5L78.1,22.5z M79.4,25.7h-2.6l-0.4,0.8h-1.7v-0.2l3-6.5h0.7l3,6.5v0.2h-1.7L79.4,25.7z"/>
            </g>
            <g>
                <path d="M19.7,44.5h1.9l-1-2.4L19.7,44.5L19.7,44.5z M18.8,46.7h-1.4v-2.2H18l2.3-5.3H21l2.3,5.3h0.7v2.2h-1.4V46h-3.9L18.8,46.7L18.8,46.7z"/>
                <path d="M29.5,42.7c0-2.4-3.3-2.4-3.3,0C26.1,45.1,29.5,45.1,29.5,42.7L29.5,42.7z M24.4,42.7c0-4.6,6.8-4.6,6.8,0C31.2,47.3,24.4,47.3,24.4,42.7z"/>
                <path d="M37.8,46c-0.6,0-1.2,0-1.7,0v-5.1h-2V46c-0.6,0-1.2,0-1.7,0v-6.7c0.6,0,1.2,0,5.5,0L37.8,46L37.8,46z"/>
                <path d="M44.1,42.7c0-2.4-3.3-2.4-3.3,0C40.7,45.1,44.1,45.1,44.1,42.7L44.1,42.7z M39,42.7c0-4.6,6.8-4.6,6.8,0C45.8,47.3,39,47.3,39,42.7z"/>
                <path d="M52.8,39.3h0.6V46c-0.6,0-1.2,0-1.7,0v-3l-1.4,1.5h-0.2L48.7,43v3c-0.6,0-1.2,0-1.7,0v-6.7h0.6l2.6,2.9L52.8,39.3z"/>
                <path d="M59.6,42.7c0-2.4-3.3-2.4-3.3,0C56.3,45.1,59.6,45.1,59.6,42.7L59.6,42.7z M54.5,42.7c0-4.6,6.8-4.6,6.8,0C61.3,47.3,54.5,47.3,54.5,42.7z"/>
                <path d="M64.2,46c-0.6,0-1.1,0-1.7,0v-6.7c1.4,0,2.8,0,4.1,0c0,0.6,0,1,0,1.5h-2.4V46z"/>
                <path d="M69.4,42l-0.7,1.8h1.5L69.4,42L69.4,42z M70.7,45.2h-2.6L67.7,46h-1.7v-0.2l3-6.5h0.7l3,6.5V46h-1.7L70.7,45.2z"/>
            </g>
            <g>
                <path d="M23.7,36.2c-0.6,0-1.2,0-1.7,0v-5.1h-2.1v5.1c-0.6,0-1.2,0-1.7,0v-6.7c0.6,0,1.2,0,5.5,0V36.2z"/>
                <path d="M25.2,36.2c0-2.2,0-4.4,0-6.7c1,0,1.9,0,2.9,0c3.2,0,3.2,5,0,5h-1.2v1.7C26.3,36.2,25.7,36.2,25.2,36.2z M28.1,31.1c-0.4,0-0.8,0-1.2,0c0,0.5,0,1.4,0,1.9h1.2C29,33,29.1,31.1,28.1,31.1z"/>
                <path d="M35,35.4h-2.6L32,36.2h-1.7V36l3-6.5H34l3,6.5v0.2h-1.7L35,35.4z M33.6,32.2L32.9,34h1.5L33.6,32.2z"/>
                <path d="M42,32.8c0.5,0.3,0.8,0.8,0.8,1.4c0,1.2-0.7,2.1-2.1,2.1h-3.1v-6.7h2.8c1.1,0,2.1,0.9,2.1,2.1C42.6,32,42.4,32.5,42,32.8z M39.3,31.1v1.1h1.1c0.7,0,0.7-1.1,0-1.1H39.3z M39.3,33.6v1.1h1.4c0.7,0,0.7-1.1,0-1.1H39.3z"/>
                <path d="M49.5,36.2c-0.6,0-1.2,0-1.7,0v-2.7h-2.1v2.7c-0.6,0-1.2,0-1.7,0v-6.7c0.6,0,1.2,0,1.7,0V32h2.1v-2.4c0.6,0,1.2,0,1.7,0V36.2z"/>
                <path d="M51.6,36.3H51v-6.7c0.6,0,1.2,0,1.7,0v3.3l3.4-3.3h0.6v6.7c-0.6,0-1.2,0-1.8,0V33L51.6,36.3z"/>
                <path d="M61.3,36.2v-2.3H61c-2.3,0-3.1-1.2-3.1-3.5v-0.8h1.7v0.8c0,1.1,0.1,1.9,1.4,1.9h0.3v-2.7h1.7v6.7L61.3,36.2L61.3,36.2z"/>
                <path d="M68.3,35.4h-2.6l-0.4,0.8h-1.7V36l3-6.5h0.7l3,6.5v0.2h-1.7L68.3,35.4z M67,32.2L66.3,34h1.5L67,32.2z"/>
            </g>
        </g>
    </g>
</svg>
