<svg width="246" height="65" viewBox="0 0 246 65" fill="none" xmlns="http://www.w3.org/2000/svg">
<path fill-rule="evenodd" clip-rule="evenodd" d="M154.134 13.1629L154.138 7.15939L150.277 7.1565L150.275 9.68428C150.274 10.9933 150.16 12.2572 149.977 13.16L154.134 13.1629ZM156.563 13.1419L156.561 16.2565L155.176 16.2554L155.177 14.4499L149.091 14.4455L149.09 16.2511L147.682 16.25L147.684 13.1354L148.592 13.1361C148.774 12.4367 148.866 11.3309 148.867 9.6832L148.87 5.86914L155.57 5.87383L155.565 13.1412L156.563 13.1419Z" fill="black"/>
<path fill-rule="evenodd" clip-rule="evenodd" d="M164.354 13.1928L164.353 14.4567L158.289 14.4524L158.295 5.87598L164.245 5.88031L164.245 7.1442L159.725 7.14095L159.723 9.44303L163.221 9.44556L163.22 10.6643L159.723 10.6618L159.721 13.1896L164.354 13.1928Z" fill="black"/>
<path fill-rule="evenodd" clip-rule="evenodd" d="M171.328 8.54851C171.329 7.6006 170.716 7.1261 169.535 7.12538L167.537 7.12393L167.535 9.96768L169.533 9.96913C170.714 9.96985 171.328 9.47404 171.328 8.54851ZM172.782 8.52685C172.781 10.1742 171.599 11.1893 169.714 11.1879L167.534 11.1864L167.531 14.4588L166.101 14.4577L166.107 5.88135L169.718 5.88424C171.603 5.88532 172.783 6.90185 172.782 8.52685Z" fill="black"/>
<path fill-rule="evenodd" clip-rule="evenodd" d="M181.389 10.3162L180.161 11.5566L180.159 14.4683L178.728 14.4672L178.731 11.5556L177.505 10.3133L174.799 14.4643L173.073 14.4629L176.484 9.29717L173.125 5.88647L174.919 5.88792L178.732 9.88542L178.735 5.89081L180.165 5.89189L180.162 9.86411L183.981 5.89442L185.752 5.89586L182.411 9.32389L185.791 14.4723L184.088 14.4708L181.389 10.3162Z" fill="black"/>
<path fill-rule="evenodd" clip-rule="evenodd" d="M192.062 11.2266L190.497 7.20819L188.928 11.2245L192.062 11.2266ZM192.56 12.4909L188.427 12.488L187.653 14.4734L186.154 14.4723L189.635 5.89844L191.384 5.89988L194.853 14.4784L193.331 14.4774L192.56 12.4909ZM197.697 7.12307L197.695 9.49269L199.966 9.49449C200.965 9.49521 201.465 9.11207 201.466 8.29957C201.466 7.50946 200.967 7.12524 199.968 7.12452L197.697 7.12307ZM201.599 11.9782C201.6 11.1206 201.055 10.6916 199.988 10.6905L197.694 10.689L197.692 13.262L199.986 13.2634C201.053 13.2645 201.599 12.8359 201.599 11.9782ZM203.03 12.1375C203.029 13.5819 201.983 14.484 200.257 14.4825L196.306 14.4796L196.312 5.90324L200.196 5.90613C201.831 5.90721 202.875 6.78832 202.874 8.18763C202.873 9.04527 202.487 9.72199 201.782 10.1051C202.577 10.467 203.031 11.1895 203.03 12.1375Z" fill="black"/>
<path fill-rule="evenodd" clip-rule="evenodd" d="M212.142 5.91472L212.135 14.4911L210.705 14.4904L210.708 10.7439L206.393 10.7406L206.39 14.4871L204.959 14.4861L204.966 5.90967L206.396 5.91075L206.394 9.43158L210.709 9.43483L210.711 5.914L212.142 5.91472Z" fill="black"/>
<path fill-rule="evenodd" clip-rule="evenodd" d="M219.496 11.2467L217.931 7.22821L216.362 11.2445L219.496 11.2467ZM219.995 12.5109L215.861 12.508L215.087 14.4934L213.588 14.4923L217.07 5.91846L218.818 5.9199L222.287 14.4985L220.765 14.4974L219.995 12.5109ZM147.947 25.3231C147.949 22.7051 149.631 20.9233 152.061 20.9252C153.833 20.9266 155.172 21.8301 155.67 23.4555L154.33 23.9285C153.99 22.7545 153.196 22.1674 152.037 22.1663C150.47 22.1652 149.425 23.4056 149.423 25.3242C149.422 27.2876 150.42 28.4847 152.033 28.4857C153.191 28.4868 153.986 27.9004 154.328 26.7271L155.668 27.202C155.167 28.7815 153.826 29.7287 152.055 29.7272C149.557 29.7254 147.945 27.9863 147.947 25.3231ZM164.319 29.6233L162.865 29.6222L162.87 22.3549L159.214 22.3523L159.212 25.0155C159.209 28.4685 158.891 29.6645 157.233 29.6634C157.006 29.663 156.756 29.663 156.415 29.6175L156.416 28.2634L156.802 28.2637C157.597 28.2641 157.779 28.1514 157.781 24.9242L157.784 21.0422L164.325 21.0469L164.319 29.6233ZM174.045 21.054L171.201 27.8905C170.769 28.9735 170.087 29.7401 168.951 29.7394C167.793 29.7387 167.067 28.9255 167.022 27.8197L168.226 27.5272C168.271 28.2043 168.498 28.543 168.998 28.5434C169.293 28.5434 169.588 28.4535 169.77 28.07L165.824 21.0478L167.459 21.0493L170.384 26.671L172.523 21.0529L174.045 21.054Z" fill="black"/>
<path fill-rule="evenodd" clip-rule="evenodd" d="M182.512 25.4837L181.285 26.7241L181.283 29.6358L179.852 29.6347L179.854 26.723L178.629 25.4808L175.923 29.6314L174.197 29.6303L177.607 24.4643L174.249 21.054L176.043 21.0554L179.855 25.0529L179.858 21.0583L181.289 21.0594L181.286 25.0316L185.104 21.0619L186.876 21.0633L183.535 24.4914L186.915 29.6397L185.212 29.6383L182.512 25.4837Z" fill="black"/>
<path fill-rule="evenodd" clip-rule="evenodd" d="M193.662 27.0264C193.663 26.1009 193.095 25.6043 191.914 25.6033L189.848 25.6018L189.846 28.4232L191.913 28.4246C193.094 28.4253 193.662 27.9519 193.662 27.0264ZM195.138 27.0275C195.137 28.6301 193.956 29.6448 192.094 29.6434L188.414 29.6408L188.421 21.0645L194.439 21.0688L194.438 22.3327L189.85 22.3294L189.849 24.4282L192.097 24.43C193.959 24.4311 195.14 25.4252 195.138 27.0275ZM201.521 26.4003L199.957 22.3818L198.387 26.3981L201.521 26.4003ZM202.019 27.6645L197.886 27.6616L197.113 29.647L195.614 29.6459L199.094 21.0721L200.843 21.0735L204.312 29.6521L202.79 29.651L202.019 27.6645ZM153.409 40.2681L153.412 37.4471L151.413 37.4457C150.255 37.4446 149.664 37.9408 149.663 38.8659C149.662 39.7915 150.253 40.2656 151.411 40.2667L153.409 40.2681ZM154.837 44.7831L153.406 44.782L153.409 41.4645L151.342 41.4627L149.318 44.7788L147.706 44.7777L149.889 41.2359C148.844 40.8513 148.209 39.9933 148.21 38.8197C148.211 37.2175 149.393 36.2024 151.278 36.2038L154.843 36.2067L154.837 44.7831Z" fill="black"/>
<path fill-rule="evenodd" clip-rule="evenodd" d="M160.154 40.6792L158.859 41.942L158.856 44.7857L157.426 44.7846L157.432 36.2083L158.863 36.2093L158.86 40.2946L162.905 36.2122L164.699 36.2137L161.154 39.6868L164.897 44.7901L163.149 44.789L160.154 40.6792Z" fill="black"/>
<path fill-rule="evenodd" clip-rule="evenodd" d="M171.896 40.5073C171.897 38.6114 170.854 37.3468 169.219 37.3454C167.583 37.3443 166.538 38.6075 166.537 40.5033C166.535 42.3991 167.579 43.6637 169.214 43.6648C170.849 43.6663 171.895 42.4031 171.896 40.5073ZM165.061 40.5022C165.062 37.8842 166.767 36.1024 169.22 36.1042C171.74 36.1061 173.374 37.8452 173.372 40.5084C173.37 43.1264 171.666 44.9081 169.213 44.9063C166.692 44.9045 165.058 43.1654 165.061 40.5022ZM174.644 40.509C174.646 37.891 176.328 36.1093 178.758 36.1111C180.529 36.1122 181.869 37.016 182.367 38.6414L181.027 39.1148C180.687 37.9408 179.893 37.3533 178.734 37.3526C177.167 37.3515 176.122 38.5915 176.12 40.5101C176.119 42.4735 177.117 43.6706 178.73 43.672C179.888 43.6727 180.683 43.0866 181.025 41.9134L182.364 42.3879C181.864 43.9674 180.523 44.9142 178.751 44.9131C176.253 44.9113 174.642 43.1722 174.644 40.509Z" fill="black"/>
<path fill-rule="evenodd" clip-rule="evenodd" d="M190.453 37.5414L187.386 37.5392L187.381 44.8066L185.928 44.8055L185.933 37.5381L182.867 37.5356L182.868 36.2266L190.453 36.2323L190.453 37.5414Z" fill="black"/>
<path fill-rule="evenodd" clip-rule="evenodd" d="M191.976 36.2336L193.407 36.2347L193.4 44.8111L191.97 44.81L191.976 36.2336Z" fill="black"/>
<path fill-rule="evenodd" clip-rule="evenodd" d="M205.803 40.5316C205.805 38.6357 204.761 37.3711 203.126 37.37C201.491 37.369 200.445 38.6318 200.444 40.5276C200.442 42.4234 201.486 43.6884 203.121 43.6895C204.756 43.6906 205.802 42.4274 205.803 40.5316ZM198.968 40.5265C198.969 37.9085 200.674 36.1271 203.127 36.1289C205.648 36.1304 207.282 37.8698 207.279 40.533C207.278 43.1511 205.573 44.9328 203.12 44.931C200.599 44.9292 198.966 43.1897 198.968 40.5265ZM208.551 40.5337C208.553 37.9156 210.235 36.1339 212.665 36.1357C214.437 36.1368 215.776 37.0406 216.274 38.666L214.934 39.1391C214.594 37.9654 213.8 37.3779 212.641 37.3772C211.075 37.3758 210.029 38.6162 210.027 40.5348C210.026 42.4981 211.024 43.6952 212.637 43.6966C213.795 43.6974 214.591 43.1113 214.932 41.9377L216.272 42.4125C215.771 43.992 214.43 44.9389 212.659 44.9378C210.16 44.9356 208.55 43.1969 208.551 40.5337ZM219.386 37.472L219.385 39.8416L221.656 39.8434C222.655 39.8441 223.155 39.461 223.156 38.6485C223.156 37.8584 222.657 37.4745 221.658 37.4738L219.386 37.472ZM223.289 42.3271C223.29 41.4695 222.745 41.0405 221.677 41.0398L219.384 41.038L219.382 43.6109L221.676 43.6127C222.743 43.6134 223.289 43.1848 223.289 42.3271ZM224.72 42.4864C224.719 43.9308 223.673 44.8329 221.947 44.8318L217.996 44.8289L218.002 36.2525L221.885 36.2554C223.52 36.2565 224.565 37.1372 224.564 38.5365C224.563 39.3942 224.176 40.0709 223.472 40.4544C224.267 40.8159 224.72 41.5385 224.72 42.4864Z" fill="black"/>
<path fill-rule="evenodd" clip-rule="evenodd" d="M226.654 36.2585L228.085 36.2596L228.078 44.836L226.647 44.8349L226.654 36.2585Z" fill="black"/>
<path fill-rule="evenodd" clip-rule="evenodd" d="M237.191 37.5753L234.125 37.5731L234.12 44.8405L232.666 44.8394L232.671 37.5721L229.605 37.5695L229.606 36.2605L237.191 36.2663L237.191 37.5753Z" fill="black"/>
<path fill-rule="evenodd" clip-rule="evenodd" d="M245.935 36.2725L245.929 44.8489L244.498 44.8478L244.503 38.4608L240.092 44.8446L238.707 44.8435L238.713 36.2671L240.144 36.2682L240.139 42.6328L244.527 36.2714L245.935 36.2725Z" fill="black"/>
<path fill-rule="evenodd" clip-rule="evenodd" d="M155.718 51.3737L152.875 58.2106C152.442 59.2936 151.76 60.0602 150.625 60.0595C149.467 60.0588 148.741 59.2456 148.696 58.1395L149.9 57.847C149.945 58.5244 150.171 58.8628 150.671 58.8631C150.966 58.8635 151.262 58.7732 151.444 58.3901L147.497 51.3679L149.132 51.369L152.058 56.9911L154.197 51.3726L155.718 51.3737Z" fill="black"/>
<path fill-rule="evenodd" clip-rule="evenodd" d="M160.029 55.8456L158.734 57.1087L158.731 59.9525L157.301 59.9514L157.307 51.375L158.738 51.3761L158.735 55.4613L162.78 51.379L164.574 51.3804L161.029 54.8532L164.772 59.9568L163.024 59.9557L160.029 55.8456Z" fill="black"/>
<path fill-rule="evenodd" clip-rule="evenodd" d="M171.5 54.0485C171.501 53.1006 170.888 52.6264 169.707 52.6253L167.708 52.6239L167.707 55.4676L169.705 55.4691C170.886 55.4702 171.5 54.974 171.5 54.0485ZM172.954 54.0268C172.953 55.6746 171.771 56.6889 169.886 56.6882L167.706 56.6864L167.703 59.9588L166.272 59.9577L166.279 51.3813L169.89 51.3842C171.775 51.3853 172.955 52.4018 172.954 54.0268ZM178.766 56.717L177.202 52.6985L175.632 56.7145L178.766 56.717ZM179.265 57.9812L175.131 57.978L174.358 59.9637L172.859 59.9627L176.339 51.3888L178.088 51.3899L181.557 59.9691L180.035 59.9677L179.265 57.9812ZM184.176 49.0924L185.652 49.0935L185.652 50.4476L184.175 50.4465L184.176 49.0924ZM183.017 51.3937L184.447 51.3948L184.441 59.9712L183.01 59.9701L183.017 51.3937ZM181.837 49.0906L183.313 49.0917L183.312 50.4458L181.836 50.4447L181.837 49.0906Z" fill="black"/>
<path fill-rule="evenodd" clip-rule="evenodd" d="M194.212 51.4019L194.206 59.9783L192.775 59.9772L192.778 56.2307L188.463 56.2274L188.46 59.974L187.029 59.9729L187.035 51.3965L188.466 51.3976L188.464 54.9184L192.779 54.9217L192.781 51.4008L194.212 51.4019Z" fill="black"/>
<path fill-rule="evenodd" clip-rule="evenodd" d="M204.023 51.4087L204.017 59.9851L202.586 59.984L202.591 53.5971L198.18 59.9808L196.795 59.9797L196.801 51.4033L198.232 51.4044L198.227 57.769L202.615 51.4077L204.023 51.4087Z" fill="black"/>
<mask id="mask0" mask-type="alpha" maskUnits="userSpaceOnUse" x="0" y="0" width="246" height="65">
<path d="M0 64.9754H245.935V0H0V64.9754Z" fill="white"/>
</mask>
<g mask="url(#mask0)">
<path fill-rule="evenodd" clip-rule="evenodd" d="M82.8262 64.9755H131.862V54.1465H82.8262V64.9755Z" fill="#202EE2"/>
<path fill-rule="evenodd" clip-rule="evenodd" d="M107.345 37.9022C99.8226 37.9022 93.7242 31.8417 93.7242 24.3656C93.7242 16.8899 99.8226 10.829 107.345 10.829C114.868 10.829 120.967 16.8899 120.967 24.3656C120.967 31.8417 114.868 37.9022 107.345 37.9022ZM107.345 0C93.8045 0 82.8271 10.9088 82.8271 24.3656C82.8271 37.8224 93.8045 48.7316 107.345 48.7316C120.886 48.7316 131.864 37.8224 131.864 24.3656C131.864 10.9088 120.886 0 107.345 0Z" fill="#202EE2"/>
<path fill-rule="evenodd" clip-rule="evenodd" d="M60.125 64.9754H61.9411V0H60.125V64.9754Z" fill="#202EE2"/>
<path fill-rule="evenodd" clip-rule="evenodd" d="M21.2414 51.9468H24.9576C24.3558 54.5627 23.0444 56.9135 21.2414 58.7866V51.9468ZM14.2556 51.9468H17.9714V58.7866C16.1735 56.9103 14.8657 54.5627 14.2556 51.9468ZM24.7515 44.6848C25.1193 45.9599 25.3267 47.3004 25.3267 48.6957H21.2399C21.2399 46.6471 22.7683 44.9622 24.7515 44.6848ZM14.457 44.6848C16.4398 44.9622 17.9685 46.6504 17.9685 48.6957H13.8814C13.8814 47.3036 14.0889 45.9599 14.457 44.6848ZM34.1075 38.9497H35.9596V48.6975H28.6029C28.6029 47.0501 28.3725 45.4533 27.9524 43.937L29.5233 43.5813C31.7631 42.9623 33.5239 41.19 34.101 38.9479L34.1075 38.9497ZM3.25832 38.9497H5.1104C5.69397 41.1933 7.45631 42.9642 9.68811 43.5831L11.259 43.9388C10.8389 45.4533 10.6085 47.0418 10.6085 48.6993H3.25178V38.9511L3.25832 38.9497ZM19.6066 33.6302C20.4845 36.4851 21.6927 39.2028 23.1949 41.718C21.7661 42.1484 20.5237 42.9869 19.6066 44.1157C18.6895 42.9869 17.4471 42.1502 16.018 41.7165C17.5205 39.1963 18.7287 36.4851 19.6066 33.6302ZM35.9549 11.6486V35.6935H34.1024C33.6253 33.8544 32.355 32.3338 30.6791 31.5036L31.9869 20.5695C32.4106 17.1888 33.831 14.1132 35.9433 11.6435L35.9549 11.6486ZM3.25832 11.6486C5.37385 14.1164 6.79425 17.1888 7.2143 20.5727L8.52243 31.5068C6.84658 32.3352 5.57951 33.8559 5.09914 35.6968H3.24705V11.6518L3.25832 11.6486ZM19.6066 -0.000488281C18.083 1.7184 17.1542 3.96704 17.1542 6.43668C17.2443 11.858 17.9129 17.2729 17.9714 22.6831C18.0924 27.7361 16.5692 32.48 14.7153 37.1102C14.0972 38.3889 13.4301 39.6401 12.7615 40.8943L10.7997 40.501C9.02933 40.15 7.87818 38.4394 8.23319 36.6801C8.54205 35.1414 9.90541 34.0642 11.4257 34.0642L12.1419 34.1404L10.5449 20.8833C10.0231 14.9856 6.95958 9.8026 2.45237 6.43957C1.67731 5.86143 0.855004 5.33168 0 4.86548V51.9324H10.9337C11.7513 56.335 14.1935 60.1855 17.6266 62.8177C18.4424 63.3763 19.1277 64.1141 19.6197 64.975C20.1102 64.1141 20.7948 63.3763 21.6124 62.8177C25.0455 60.179 27.488 56.3368 28.3053 51.9324H39.239V4.86548C38.384 5.33168 37.5621 5.86143 36.787 6.43957C32.2747 9.80765 29.2177 14.9856 28.6944 20.8833L27.0974 34.1404L27.8133 34.0642C29.334 34.0707 30.6969 35.1396 31.0062 36.6801C31.3594 38.4394 30.2082 40.1486 28.4397 40.501L26.4779 40.8943C25.8089 39.6416 25.1403 38.3907 24.5241 37.1102C22.6687 32.4833 21.1447 27.7393 21.2657 22.6831C21.3246 17.257 21.9932 11.8468 22.0833 6.43668C22.0833 3.96704 21.1545 1.7249 19.6309 -0.000488281H19.6066Z" fill="#202EE2"/>
</g>
</svg>
